<svg width="1024" height="1024" viewBox="0 0 1024 1024" fill="none" xmlns="http://www.w3.org/2000/svg">
    <path
        d="M82 195.8C82 132.398 133.398 81 196.8 81H311.6V827.2C311.6 890.602 260.202 942 196.8 942V942C133.398 942 82 890.602 82 827.2V195.8Z"
        fill="#1455B6" />
    <path
        d="M828.2 81C891.602 81 943 132.398 943 195.8V195.8C943 259.202 891.602 310.6 828.2 310.6L460.84 310.6C397.438 310.6 346.04 259.202 346.04 195.8L346.04 81L828.2 81Z"
        fill="#1455B6" fill-opacity="0.8" />
    <path
        d="M828.2 358.433C891.602 358.433 943 409.831 943 473.233V473.233C943 536.636 891.602 588.033 828.2 588.033L460.84 588.033C397.438 588.033 346.04 536.636 346.04 473.233L346.04 358.433L828.2 358.433Z"
        fill="#1455B6" fill-opacity="0.6" />
</svg>
