<svg width="2048" height="2048" viewBox="0 0 2048 2048" fill="none" xmlns="http://www.w3.org/2000/svg">
    <g clip-path="url(#clip0_1005_1309)">
        <rect width="2048" height="2048" rx="600" fill="#002865" />
        <g filter="url(#filter0_d_1005_1309)">
            <path
                d="M714.403 1213.8L697.584 1117.03C693.693 1094.64 712.343 1074.77 734.928 1077.24C751.202 1079.02 763.924 1092.09 765.252 1108.41L773.222 1206.31C774.735 1224.89 758.95 1240.25 740.421 1238.22C727.277 1236.79 716.667 1226.83 714.403 1213.8Z"
                fill="white" />
            <path
                d="M814.349 1198.06L855.376 1163.8C864.866 1155.88 879.302 1159.26 884.285 1170.58C887.875 1178.73 885.174 1188.28 877.847 1193.35L833.881 1223.74C825.539 1229.5 814.008 1226.24 809.92 1216.96C807.021 1210.38 808.827 1202.67 814.349 1198.06Z"
                fill="white" />
            <path
                d="M760.751 1225.04L791.488 1080.95C797.887 1050.96 833.091 1037.54 857.832 1055.67C874.185 1067.65 879.732 1089.56 871.053 1107.88L807.986 1241.02C800.171 1257.52 777.915 1260.42 766.13 1246.48C761.117 1240.55 759.131 1232.63 760.751 1225.04Z"
                fill="white" />
            <path
                d="M164.165 1705.8C198.352 1392.7 479.886 1166.59 792.989 1200.78C1106.09 1234.96 1332.2 1516.5 1298.01 1829.6L1251.42 2256.32C1219.07 2552.59 952.671 2766.54 656.401 2734.19L595.441 2727.53C299.172 2695.18 85.2227 2428.78 117.572 2132.51L164.165 1705.8Z"
                fill="white" />
        </g>
    </g>
    <defs>
        <filter id="filter0_d_1005_1309" x="31.3494" y="956" width="1474.5" height="2045.68"
            filterUnits="userSpaceOnUse" color-interpolation-filters="sRGB">
            <feFlood flood-opacity="0" result="BackgroundImageFix" />
            <feColorMatrix in="SourceAlpha" type="matrix" values="0 0 0 0 0 0 0 0 0 0 0 0 0 0 0 0 0 0 127 0"
                result="hardAlpha" />
            <feOffset dx="49.1566" dy="132.108" />
            <feGaussianBlur stdDeviation="38.4036" />
            <feComposite in2="hardAlpha" operator="out" />
            <feColorMatrix type="matrix" values="0 0 0 0 0.320833 0 0 0 0 0 0 0 0 0 0 0 0 0 0.1 0" />
            <feBlend mode="normal" in2="BackgroundImageFix" result="effect1_dropShadow_1005_1309" />
            <feBlend mode="normal" in="SourceGraphic" in2="effect1_dropShadow_1005_1309" result="shape" />
        </filter>
        <clipPath id="clip0_1005_1309">
            <rect width="2048" height="2048" rx="600" fill="white" />
        </clipPath>
    </defs>
</svg>
